<svg height="512" viewBox="0 0 44 56" width="512" xmlns="http://www.w3.org/2000/svg"><g id="032---Down-Arrow" transform="translate(-1)"><path id="Shape" d="m22.737 51c-1.3003934-.0796055-2.5215813-.651758-3.415-1.6l-18.32200011-20.253.00000011 2.853c-.00020202.7463909.27545702 1.4665234.774 2.022l19.026 21.026c1.1157717 1.1848979 2.9695147 1.2733187 4.193.2 1.948-2.184-7.1 7.878 19.236-21.225.497767-.556128.7723677-1.2766432.771-2.023l.0000051-2.853-18.2890051 20.214c-1.0168519 1.1074995-2.4720589 1.7076717-3.974 1.639z"/><path id="Shape" d="m20.772 48.019c.5399067.5848958 1.2862409.9367237 2.081.981.8880631.0425002 1.7499307-.3074393 2.357-.957l19.018-21.02c1.1109207-1.2313189 1.0133188-3.1300792-.2180001-4.2409999-1.2313188-1.1109208-3.1300791-1.0133189-4.2409999.2179999l-12.027 13.3c-.2785133.3083022-.7186466.4122746-1.1056796.261194-.387033-.1510807-.6403304-.5257378-.6363204-.941194v-32.62c0-1.65685425-1.3431458-3-3-3s-3 1.34314575-3 3v32.62c.0002484.4138083-.2544022.7850247-.6405541.9337663-.386152.1487417-.8240289.0442796-1.1014459-.2627663l-12.03-13.3c-1.11257763-1.2304904-3.01200958-1.3260776-4.2425-.2135s-1.32607763 3.0120096-.2135 4.2425z"/></g></svg>